<?xml version="1.0" encoding="UTF-8"?>
<svg id="Layer_1" data-name="Layer 1" xmlns="http://www.w3.org/2000/svg" viewBox="0 0 503.93 503.93">
  <defs>
    <style>
      .cls-red   { fill: #c0152a; }
      .cls-white { fill: #ffffff; }
    </style>
  </defs>
  <path class="cls-red" d="M218.39,293.94c-5.32-10.25-5.42-21.66-.05-32.12l-15.49-15.91-70.25-70.46c-5.75-5.77-14.77-8.13-22.48-8.13l-32.08.02-.02-24.6,38.79.41c12.24.13,23.73,5.21,32.23,13.73l36.95,37.03,8.71,8.53c2.34,2.29,9.58,1.87,13.33,1.58,19.58-1.52,37.57-9.64,51.56-23.54l72.02-71.58,17.73,17.21-75.79,75.25c-14.69,14.59-33.35,21.66-54.01,26.4l16.05,16.45c10.87-5.06,22.07-5.26,32.71-.05l53.14-53.73,61.88-62.35-20.85-20.6,72.78-14.2-5.54,29.49-8.28,43.99-20.97-20.81-73.49,73.94-14.93,15.15-26.12,26.48c4.79,10.38,5.09,21.7-.23,32.54l17.7,17.76c9.68-1.95,18.79,2.14,23.68,9.78,5.34,8.35,4.72,19.06-1.63,26.88-6.72,8.27-17.84,10.3-27.14,5.77-9.24-4.5-14.18-15.24-11.75-25.56l-17.27-17.59-5.9,2.54.12,45.75c13.73,6.56,18.81,22.5,12.05,35.59s-23.11,18.24-36.37,10.86c-8.78-4.89-13.84-13.59-13.77-23.32s5.52-18.7,15.01-23.04l.15-45.79-5.9-2.81-17.41,18.04c2.78,10.53-2.71,20.57-11.18,25.04-9.38,4.94-21.08,2.86-27.55-5.37s-6.95-17.93-1.95-26.18c4.86-8.01,13.91-12.52,24.02-10.62l17.78-17.81Z"/>
  <path class="cls-white" d="M377.3,257.39l.3,87.29c.05,15.62,9.45,29.47,23.64,36.56l-.08-164.05-53.55,53.34c-11.27,11.22-25.99,18.02-40.63,21.48,1.74-9.78,1.94-17.31.57-26.02,10.94-3.76,20.12-9.45,27.63-17.95l68.7-68.49,6.86,7.57c10.02,11.06,15.07,23.76,15.08,38.96l.11,183.6c-20.84,1.53-40.91-5.33-54.95-20.67-10.47-11.44-17.9-25.11-17.92-41.08l-.08-66.64,24.34-23.91Z"/>
  <path class="cls-white" d="M102.92,217.7l-.23,163.7c14.56-6.91,23.51-20.82,23.87-36.47l.03-87.67,24.45,24.13-.21,66.61c-1.46,37.66-35.74,65.41-72.67,61.7l-.09-186.57c0-7.93,2.13-14.43,7.05-20.04,9.25-10.54,25.82-12.77,36.19-2.4l52.43,52.41c6.81,5.67,14.15,9.57,22.6,12.94-1.18,8.81-1.11,17.17.69,26.15-18.32-4.39-34.06-14.03-46.82-27.48l-47.3-47.01Z"/>
  <path class="cls-red" d="M219.14,190.74l-46.65-47.3c-13.93-14.15-31.16-23.5-51.41-23.68l-43.04-.37-.04-24.55,37.01-.14c25.39-.1,49.3,8.13,68.38,24.87l59.66,59.96c-7.12,4.64-14.38,7.98-23.9,11.21Z"/>
</svg>
